# xmcd CD database file generated by OrangeCD 5.2
#
# Track frame offsets:
#	150
#	12749
#	23590
#	36158
#	48696
#	61218
#	73792
#	94786
#	109426
#	122940
#	139217
#	152651
#	170691
#	186205
#
# Disc length: 2643 seconds
#
# Revision: 0
# Processed by: cddbd v1.5.1PL0 Copyright (c) Steve Scherf et al.
# Submitted via: OrangeCD 5.2
#
DISCID=ce0a510e
DTITLE=Various Artist - A Brief History Of Soul   Sock It To Me
DYEAR=2005
DGENRE=R&B Compilation
TTITLE0=James Brown - I Got You (I Feel Good)
TTITLE1=Aretha Franklin - Respect
TTITLE2=The Temotations - My Girl
TTITLE3=The Isley Brothers - It's Your Thing
TTITLE4=Major Lance - The Monkey Time
TTITLE5=The Supremes - You Can't Hurry Love
TTITLE6=Glagys Knighy and The Pips - Midnight Train To Georgia
TTITLE7=The Five Stairsteps - O o h Child
TTITLE8=Sly and The Family Stone - Dance To The Music
TTITLE9=Earth, Wind and Fire - September
TTITLE10=The O'Jays - Love Train
TTITLE11=Marvin Gaye - Sexual Healing
TTITLE12=Harold Melvin and The Blue Notes - If You Don't Know Me By Now
TTITLE13=Otis Redding - (Sittin' On) The Dock Of The Bay
EXTD=
EXTT0=
EXTT1=
EXTT2=
EXTT3=
EXTT4=
EXTT5=
EXTT6=
EXTT7=
EXTT8=
EXTT9=
EXTT10=
EXTT11=
EXTT12=
EXTT13=
PLAYORDER=
